<?xml version="1.0" encoding="UTF-8" standalone="no"?>
<!-- Created with Inkscape (http://www.inkscape.org/) -->

<svg
   xmlns:dc="http://purl.org/dc/elements/1.1/"
   xmlns:cc="http://creativecommons.org/ns#"
   xmlns:rdf="http://www.w3.org/1999/02/22-rdf-syntax-ns#"
   xmlns:svg="http://www.w3.org/2000/svg"
   xmlns="http://www.w3.org/2000/svg"
   xmlns:xlink="http://www.w3.org/1999/xlink"
   xmlns:sodipodi="http://sodipodi.sourceforge.net/DTD/sodipodi-0.dtd"
   xmlns:inkscape="http://www.inkscape.org/namespaces/inkscape"
   width="800"
   height="800"
   id="svg2"
   version="1.1"
   inkscape:version="0.48.4 r9939"
   sodipodi:docname="processes.svg">
  <defs
     id="defs4" />
  <sodipodi:namedview
     id="base"
     pagecolor="#ffffff"
     bordercolor="#666666"
     borderopacity="1.0"
     inkscape:pageopacity="0.0"
     inkscape:pageshadow="2"
     inkscape:zoom="1"
     inkscape:cx="111.48932"
     inkscape:cy="671.22552"
     inkscape:document-units="px"
     inkscape:current-layer="layer1"
     showgrid="false"
     inkscape:window-width="1301"
     inkscape:window-height="744"
     inkscape:window-x="65"
     inkscape:window-y="24"
     inkscape:window-maximized="1" />
  <metadata
     id="metadata7">
    <rdf:RDF>
      <cc:Work
         rdf:about="">
        <dc:format>image/svg+xml</dc:format>
        <dc:type
           rdf:resource="http://purl.org/dc/dcmitype/StillImage" />
        <dc:title></dc:title>
      </cc:Work>
    </rdf:RDF>
  </metadata>
  <g
     inkscape:label="Layer 1"
     inkscape:groupmode="layer"
     id="layer1"
     transform="translate(0,-252.36218)">
    <path
       style="fill:#ead8a4;fill-opacity:1;stroke:#000000;stroke-width:3;stroke-linecap:butt;stroke-linejoin:miter;stroke-miterlimit:4;stroke-opacity:1;stroke-dasharray:none"
       d="m -47.29844,392.19376 c -3.4507,-0.53954 -5.99543,-4.1534 -7.53168,-7.23867 -1.86794,-3.56175 -4.11439,-7.62692 -3.21311,-11.16726 0.0191,-2.88222 -0.7123,-5.89703 -0.74894,-8.79032 -1.376646,-3.37233 -3.518481,-6.53473 -4.779844,-9.93525 0.483826,-2.49653 -4.205935,-4.98088 -4.897953,-2.46203 -0.588001,2.30754 0.538481,5.38851 -1.017249,7.21673 -1.96517,1.31554 -4.709704,-1.72301 -5.121909,-3.92565 -0.750669,-2.38208 -3.877209,-4.62303 -5.605706,-3.09966 -1.387669,1.71879 0.891137,4.37109 0.931064,6.41475 -1.455892,1.94171 -2.981722,-1.95542 -4.61203,-2.27298 -1.824324,0.26825 -1.909914,3.08752 -0.468809,4.63252 1.893933,1.93169 1.451608,5.25464 -1.417238,3.782 -2.113226,-0.52257 -3.987755,1.73427 -1.90588,3.7058 2.354223,2.27141 5.666886,1.83014 7.955341,4.28508 3.702205,3.41329 6.383186,8.14042 10.856032,10.52478 2.679135,2.21097 3.171644,6.08824 6.165978,7.99054 3.383623,2.84335 7.437163,4.17358 11.247213,5.543 2.57472,0.16602 3.36899,-2.68236 2.99856,-5.01555 -0.0423,-0.6323 0.77112,-0.91816 1.16609,-0.18781 z"
       id="path3882"
       inkscape:connector-curvature="0" />
    <g
       id="g3869"
       transform="matrix(0.72419902,0,0,0.72419902,29.93508,120.68576)">
      <path
         id="path3809"
         d="m 172.85715,73.571426 c 0,16.963032 -14.07106,30.714284 -31.42858,30.714284 C 124.07105,104.28571 110,90.534458 110,73.571426 c 0,-16.963031 14.07105,-30.714285 31.42857,-30.714285 17.35752,0 31.42858,13.751254 31.42858,30.714285 z"
         style="opacity:0.97942349;color:#000000;fill:#f1e891;fill-opacity:1;fill-rule:nonzero;stroke:none;stroke-width:3;marker:none;visibility:visible;display:inline;overflow:visible;enable-background:accumulate"
         transform="translate(0,252.36218)"
         inkscape:connector-curvature="0" />
      <path
         id="rect3811"
         d="m 88.086095,370.81876 20.180755,0 c 1.53279,0 2.76676,1.23397 2.76676,2.76676 0,1.53279 -1.23397,2.76677 -2.76676,2.76677 l -20.180755,0 c -1.532789,0 -2.766767,-1.23398 -2.766767,-2.76677 0,-1.53279 1.233978,-2.76676 2.766767,-2.76676 z"
         style="opacity:0.97942349;color:#000000;fill:#f1e891;fill-opacity:1;fill-rule:nonzero;stroke:none;stroke-width:3;marker:none;visibility:visible;display:inline;overflow:visible;enable-background:accumulate"
         transform="matrix(0.99306115,-0.11759913,0.11759913,0.99306115,0,0)"
         inkscape:connector-curvature="0" />
      <use
         style="fill:#f1e891;fill-opacity:1"
         id="use3854"
         xlink:href="#rect3811"
         inkscape:tiled-clone-of="#rect3811"
         y="0"
         x="0"
         width="800"
         height="800" />
      <use
         style="fill:#f1e891;fill-opacity:1"
         id="use3856"
         transform="translate(0,7.5122769)"
         xlink:href="#rect3811"
         inkscape:tiled-clone-of="#rect3811"
         y="0"
         x="0"
         width="800"
         height="800" />
      <use
         style="fill:#f1e891;fill-opacity:1"
         id="use3858"
         transform="translate(0,15.024554)"
         xlink:href="#rect3811"
         inkscape:tiled-clone-of="#rect3811"
         y="0"
         x="0"
         width="800"
         height="800" />
      <use
         style="fill:#f1e891;fill-opacity:1"
         id="use3860"
         transform="translate(0,22.536831)"
         xlink:href="#rect3811"
         inkscape:tiled-clone-of="#rect3811"
         y="0"
         x="0"
         width="800"
         height="800" />
      <path
         id="path3864"
         d="m 147.22973,136.96112 c 0,2.3013 -2.14824,4.16688 -4.79823,4.16688 -2.64998,0 -4.79822,-1.86558 -4.79822,-4.16688 0,-2.3013 2.14824,-4.16688 4.79822,-4.16688 2.64999,0 4.79823,1.86558 4.79823,4.16688 z"
         style="opacity:0.97942349;color:#000000;fill:#f1e891;fill-opacity:1;fill-rule:nonzero;stroke:none;stroke-width:3;marker:none;visibility:visible;display:inline;overflow:visible;enable-background:accumulate"
         transform="translate(0,248.36218)"
         inkscape:connector-curvature="0" />
    </g>
    <g
       id="g3918">
      <path
         transform="matrix(0.97088384,0,0,0.97088384,3.9117646,258.06687)"
         d="m 167.68533,195.92877 a 33.335033,34.345188 0 1 1 -66.67007,0 33.335033,34.345188 0 1 1 66.67007,0 z"
         sodipodi:ry="34.345188"
         sodipodi:rx="33.335033"
         sodipodi:cy="195.92877"
         sodipodi:cx="134.3503"
         id="path2985"
         style="opacity:0.97942349;color:#000000;fill:#4f370a;fill-opacity:1;fill-rule:nonzero;stroke:none;marker:none;visibility:visible;display:inline;overflow:visible;enable-background:accumulate"
         sodipodi:type="arc" />
      <path
         transform="matrix(0.7088384,0,0,0.7088384,39.117648,309.40908)"
         d="m 167.68533,195.92877 a 33.335033,34.345188 0 1 1 -66.67007,0 33.335033,34.345188 0 1 1 66.67007,0 z"
         sodipodi:ry="34.345188"
         sodipodi:rx="33.335033"
         sodipodi:cy="195.92877"
         sodipodi:cx="134.3503"
         id="path2985-8"
         style="opacity:0.97942349;color:#000000;fill:#f1d091;fill-opacity:1;fill-rule:nonzero;stroke:none;marker:none;visibility:visible;display:inline;overflow:visible;enable-background:accumulate"
         sodipodi:type="arc" />
      <path
         sodipodi:end="3.4933173"
         sodipodi:start="0"
         transform="matrix(0.6739288,-0.09758,0.09758,0.6739288,84.128041,318.40206)"
         d="m 63.639612,204.51508 a 17.172594,22.728432 0 1 1 -33.293881,-7.83034 l 16.121287,7.83034 z"
         sodipodi:ry="22.728432"
         sodipodi:rx="17.172594"
         sodipodi:cy="204.51508"
         sodipodi:cx="46.467018"
         id="path3878"
         style="opacity:0.97942349;color:#000000;fill:#ffffff;fill-opacity:1;fill-rule:nonzero;stroke:#000000;stroke-width:3;stroke-opacity:1;marker:none;visibility:visible;display:inline;overflow:visible;enable-background:accumulate"
         sodipodi:type="arc" />
    </g>
    <path
       sodipodi:type="arc"
       style="opacity:0.97942349;color:#000000;fill:#4f370a;fill-opacity:1;fill-rule:nonzero;stroke:none;marker:none;visibility:visible;display:inline;overflow:visible;enable-background:accumulate"
       id="path2985-0"
       sodipodi:cx="134.3503"
       sodipodi:cy="195.92877"
       sodipodi:rx="33.335033"
       sodipodi:ry="34.345188"
       d="m 167.68533,195.92877 a 33.335033,34.345188 0 1 1 -66.67007,0 33.335033,34.345188 0 1 1 66.67007,0 z"
       transform="matrix(0.97088384,0,0,0.97088384,157.86105,263.66078)" />
    <path
       sodipodi:type="arc"
       style="opacity:0.97942348999999995;color:#000000;fill:#91c0f1;fill-opacity:1;fill-rule:nonzero;stroke:none;marker:none;visibility:visible;display:inline;overflow:visible;enable-background:accumulate"
       id="path2985-8-2"
       sodipodi:cx="134.3503"
       sodipodi:cy="195.92877"
       sodipodi:rx="33.335033"
       sodipodi:ry="34.345188"
       d="m 167.68533,195.92877 a 33.335033,34.345188 0 1 1 -66.67007,0 33.335033,34.345188 0 1 1 66.67007,0 z"
       transform="matrix(0.7088384,0,0,0.7088384,193.06693,315.00299)" />
    <path
       sodipodi:type="arc"
       style="opacity:0.97942349;color:#000000;fill:#ffffff;fill-opacity:1;fill-rule:nonzero;stroke:#000000;stroke-width:3;stroke-opacity:1;marker:none;visibility:visible;display:inline;overflow:visible;enable-background:accumulate"
       id="path3878-0"
       sodipodi:cx="46.467018"
       sodipodi:cy="204.51508"
       sodipodi:rx="17.172594"
       sodipodi:ry="22.728432"
       d="m 63.639612,204.51508 a 17.172594,22.728432 0 1 1 -33.293881,-7.83034 l 16.121287,7.83034 z"
       transform="matrix(0.6739288,-0.09758,0.09758,0.6739288,238.07732,323.99597)"
       sodipodi:start="0"
       sodipodi:end="3.4933173" />
    <path
       style="opacity:0.97942349;color:#000000;fill:#10447a;fill-opacity:1;fill-rule:nonzero;stroke:none;stroke-width:3;marker:none;visibility:visible;display:inline;overflow:visible;enable-background:accumulate"
       d="m 291.52713,350.3775 c -0.86365,-0.87018 -2.25827,-0.85777 -3.12845,0.007 l -13.48333,13.38164 c -0.8702,0.86364 -0.89315,2.25811 -0.0295,3.1283 l 11.533,11.6205 -20.22499,20.0727 c -0.87019,0.86364 -0.85778,2.25825 0.007,3.12846 l 1.98965,2.00475 c 0.86364,0.8702 2.25812,0.89315 3.1283,0.0294 l 20.225,-20.07271 12.6775,12.77368 c 0.86364,0.8702 2.25824,0.8578 3.12844,-0.007 l 13.48331,-13.3818 c 0.87022,-0.86364 0.89316,-2.25811 0.0297,-3.12831 l -29.33434,-29.55688 z"
       id="rect3934"
       inkscape:connector-curvature="0" />
  </g>
</svg>
